# xmcd CD database file
# Copyright (C) 1993-1998 Ti Kan
#
# Track frame offsets:
#	150
#	10755
#	21807
#	34340
#	44965
#	56865
#	68467
#	84755
#	96512
#	109390
#	120857
#	133945
#	146927
#	158090
#	168392
#
# Disc length: 2404 seconds
#
# Revision: 1
# Processed by: cddbd v1.4b41PL1 Copyright (c) Steve Scherf et al.
# Submitted via: NotifyCDPlayer(CDDB) 1.51
#
DISCID=d109620f
DTITLE=Jimmy Reed - Ain't That Lovin' You Baby
DYEAR=1900
DGENRE=
TTITLE0=Ain't That Lovin' You Baby
TTITLE1=Little Rain
TTITLE2=Honest I Do
TTITLE3=Found Love
TTITLE4=Hush Hush
TTITLE5=Boogie In The Dark
TTITLE6=Cold and Lonesome
TTITLE7=Close Together
TTITLE8=Caress Me Baby
TTITLE9=I'm Nervous
TTITLE10=Oh, John
TTITLE11=Shame, Shame, Shame
TTITLE12=You're Something Else
TTITLE13=I Ain't Got You
TTITLE14=Going Fishing
EXTD=
EXTT0=
EXTT1=
EXTT2=
EXTT3=
EXTT4=
EXTT5=
EXTT6=
EXTT7=
EXTT8=
EXTT9=
EXTT10=
EXTT11=
EXTT12=
EXTT13=
EXTT14=
PLAYORDER=
